<?xml version="1.0" encoding="UTF-8"?>
<!DOCTYPE svg PUBLIC "-//W3C//DTD SVG 1.1//EN" "http://www.w3.org/Graphics/SVG/1.1/DTD/svg11.dtd">
<!-- Creator: CorelDRAW X6 -->
<svg xmlns="http://www.w3.org/2000/svg" xml:space="preserve" width="1505px" height="293px" version="1.1" style="shape-rendering:geometricPrecision; text-rendering:geometricPrecision; image-rendering:optimizeQuality; fill-rule:evenodd; clip-rule:evenodd"
viewBox="0 0 1505 293"
 xmlns:xlink="http://www.w3.org/1999/xlink">
 <defs>
  <style type="text/css">
   <![CDATA[
    .fil1 {fill:#585757}
    .fil0 {fill:#F26836}
   ]]>
  </style>
 </defs>
 <g id="Layer_x0020_1">
  <metadata id="CorelCorpID_0Corel-Layer"/>
  <g id="_725285824">
   <path class="fil0" d="M605 287l0 -206 25 0c15,0 27,12 27,27l0 0c5,-7 9,-13 14,-17 5,-4 10,-7 15,-9 5,-2 11,-3 16,-4 5,-1 11,-1 17,-1l7 0 0 37c0,10 -8,19 -18,19l0 0c-27,1 -48,23 -48,49l0 56c0,27 -22,48 -48,48l-7 0z"/>
   <path class="fil0" d="M1494 286c-25,0 -44,-20 -44,-44l0 -86c0,-16 -3,-27 -8,-33 -6,-6 -15,-9 -27,-9 -7,0 -13,1 -18,4 -5,3 -10,6 -14,11 -4,5 -6,10 -8,16 -2,6 -3,13 -3,20l0 74c0,25 -20,46 -46,46l-10 0 0 -286 29 0c15,0 27,12 27,27l0 77c2,-5 5,-9 9,-13 4,-4 9,-8 14,-10 5,-3 11,-5 18,-7 7,-2 13,-3 20,-3 22,0 39,6 53,18 13,12 20,28 20,49l0 148 -11 0z"/>
   <polygon class="fil1" points="59,289 48,250 37,289 19,289 0,222 19,222 30,265 39,222 57,222 68,265 78,222 96,222 77,289 "/>
   <path class="fil1" d="M141 249c0,-2 -1,-5 -1,-7 -1,-2 -2,-3 -3,-5 -1,-1 -3,-2 -4,-3 -2,-1 -3,-1 -5,-1 -4,0 -7,1 -9,4 -3,3 -4,6 -4,11l28 0zm-28 11c0,5 2,9 4,12 3,3 6,5 11,5 3,0 6,-1 8,-2 2,-1 4,-3 4,-6l18 0c-2,7 -6,12 -11,16 -5,4 -11,6 -19,6 -22,0 -34,-12 -34,-37 0,-5 1,-10 2,-14 1,-4 4,-8 6,-11 3,-3 6,-5 10,-7 4,-2 9,-2 14,-2 10,0 18,3 24,10 5,7 8,17 8,30l-46 0z"/>
   <path class="fil1" d="M241 256c-1,1 -2,2 -4,2 -2,1 -4,1 -8,2 -5,1 -9,2 -11,4 -2,2 -3,4 -3,7 0,5 3,8 9,8 2,0 4,0 6,-1 2,-1 4,-2 5,-3 1,-1 3,-3 3,-5 1,-2 1,-4 1,-6l0 -7zm1 33c-1,-2 -1,-4 -1,-6 -2,2 -5,4 -8,6 -3,1 -7,2 -12,2 -8,0 -13,-2 -17,-5 -4,-3 -5,-8 -5,-13 0,-5 1,-9 2,-12 2,-3 4,-5 6,-7 3,-2 6,-3 10,-4 4,-1 8,-1 12,-2 4,-1 7,-1 9,-3 2,-1 2,-3 2,-5 0,-2 -1,-4 -3,-5 -2,-1 -5,-2 -8,-2 -4,0 -7,1 -9,3 -2,2 -3,4 -3,7l-17 0c0,-3 1,-7 2,-10 1,-3 3,-5 5,-8 2,-2 5,-4 9,-5 4,-1 8,-2 14,-2 5,0 10,1 13,2 4,1 7,3 9,5 2,2 4,5 5,8 1,3 2,7 2,11l0 43 -17 0z"/>
   <path class="fil1" d="M266 289l0 -67 17 0 0 8c1,-2 3,-4 5,-5 2,-1 3,-2 5,-3 2,-1 3,-1 5,-1 2,0 4,0 5,0l2 0 0 18c-2,0 -3,0 -5,0 -11,0 -16,5 -16,16l0 35 -18 0z"/>
   <path class="fil1" d="M350 249c0,-2 -1,-5 -1,-7 -1,-2 -2,-3 -3,-5 -1,-1 -3,-2 -4,-3 -2,-1 -3,-1 -5,-1 -4,0 -7,1 -9,4 -3,3 -4,6 -4,11l28 0zm-28 11c0,5 2,9 4,12 3,3 6,5 11,5 3,0 6,-1 8,-2 2,-1 4,-3 4,-6l18 0c-2,7 -6,12 -11,16 -5,4 -11,6 -19,6 -22,0 -34,-12 -34,-37 0,-5 1,-10 2,-14 1,-4 4,-8 6,-11 3,-3 6,-5 10,-7 4,-2 9,-2 14,-2 10,0 18,3 24,10 5,7 8,17 8,30l-46 0z"/>
   <path class="fil0" d="M580 210c-1,12 -5,23 -10,33 -6,10 -13,18 -21,26 -9,7 -18,13 -29,17 -11,4 -23,6 -36,6 -14,0 -27,-2 -39,-7 -12,-5 -22,-12 -30,-21 -9,-10 -15,-21 -20,-35 -5,-14 -7,-30 -7,-49 0,-19 2,-35 7,-49 5,-14 11,-25 20,-33 9,-9 19,-15 31,-19 12,-4 25,-6 40,-6 14,0 26,2 37,6 11,4 21,9 29,16 8,7 15,16 20,26 5,10 8,21 9,33l-34 0c-11,0 -21,-6 -27,-16 -2,-4 -5,-7 -8,-10 -7,-6 -16,-9 -27,-9 -6,0 -12,1 -17,3 -5,2 -10,5 -13,10 -4,5 -7,11 -9,19 -2,8 -3,17 -3,29 0,23 4,40 12,51 8,11 18,17 29,17 11,0 20,-3 28,-9 3,-2 5,-5 7,-8 8,-11 20,-18 33,-18l29 0z"/>
   <path class="fil0" d="M1288 211c-1,12 -5,23 -10,33 -6,10 -13,18 -21,26 -9,7 -18,13 -29,17 -11,4 -23,6 -36,6 -14,0 -27,-2 -39,-7 -12,-5 -22,-12 -30,-21 -9,-10 -15,-21 -20,-35 -5,-14 -7,-30 -7,-49 0,-19 2,-35 7,-49 5,-14 11,-25 20,-33 9,-9 19,-15 31,-19 12,-4 25,-6 40,-6 14,0 26,2 37,6 11,4 21,9 29,16 8,7 15,16 20,26 5,10 8,21 9,33l-34 0c-11,0 -21,-6 -27,-16 -2,-4 -5,-7 -8,-10 -7,-6 -16,-9 -27,-9 -6,0 -12,1 -17,3 -5,2 -10,5 -13,10 -4,5 -7,11 -9,19 -2,8 -3,17 -3,29 0,23 4,40 12,51 8,11 18,17 29,17 11,0 20,-3 28,-9 3,-2 5,-5 7,-8 8,-11 20,-18 33,-18l29 0z"/>
   <path class="fil0" d="M1067 112c-4,-9 -8,-16 -14,-22 -6,-6 -13,-10 -22,-13 -9,-3 -18,-4 -28,-4 -17,0 -31,3 -41,9 -10,6 -19,14 -25,26l0 -29c0,0 -2,0 -2,0l0 0 -4 0c-21,0 -40,14 -46,33 -1,2 -1,5 -2,8l0 0c-2,10 -2,20 -2,29l0 51c0,14 -3,25 -11,34 -7,9 -18,13 -33,13 -24,0 -36,-13 -36,-39l0 -80c0,-27 -22,-49 -49,-49l-5 0 0 138c0,12 2,22 5,32 4,9 8,17 15,24 6,7 14,12 22,16 9,4 18,6 29,6 28,0 50,-11 64,-33l0 28 8 0c27,0 49,-22 49,-49l0 -72c0,-32 14,-48 43,-48 13,0 23,3 28,9 5,6 8,17 8,33l0 79c0,26 21,48 48,48l6 0 0 -145c0,-11 -1,-21 -5,-30z"/>
  </g>
 </g>
</svg>
